<?xml version="1.0" encoding="UTF-8" standalone="no"?>
<!-- Created with Inkscape (http://www.inkscape.org/) -->

<svg
   width="200"
   height="120"
   viewBox="0 0 52.916665 31.75001"
   version="1.1"
   id="svg1"
   inkscape:version="1.3 (0e150ed6c4, 2023-07-21)"
   sodipodi:docname="logo-azulFull.svg"
   xmlns:inkscape="http://www.inkscape.org/namespaces/inkscape"
   xmlns:sodipodi="http://sodipodi.sourceforge.net/DTD/sodipodi-0.dtd"
   xmlns="http://www.w3.org/2000/svg"
   xmlns:svg="http://www.w3.org/2000/svg">
  <sodipodi:namedview
     id="namedview1"
     pagecolor="#ffffff"
     bordercolor="#000000"
     borderopacity="0.25"
     inkscape:showpageshadow="2"
     inkscape:pageopacity="0.0"
     inkscape:pagecheckerboard="0"
     inkscape:deskcolor="#d1d1d1"
     inkscape:document-units="mm"
     inkscape:zoom="1.8137767"
     inkscape:cx="65.60896"
     inkscape:cy="49.89589"
     inkscape:window-width="1366"
     inkscape:window-height="705"
     inkscape:window-x="-8"
     inkscape:window-y="-8"
     inkscape:window-maximized="1"
     inkscape:current-layer="layer1" />
  <defs
     id="defs1" />
  <g
     inkscape:label="Capa 1"
     inkscape:groupmode="layer"
     id="layer1">
    <path
       id="path46"
       style="display:inline;fill:#0d284b;fill-opacity:1;font-size:27.7488px;stroke-width:0.144525"
       inkscape:label="veryLogo"
       d="M 115.3051 102.2943 C 115.23329 102.29453 115.16144 102.29641 115.08891 102.29982 C 112.76812 102.40893 110.98452 104.12273 111.10546 106.12775 C 111.22641 108.13278 114.77998 112.66426 115.68673 112.62161 C 116.47567 112.58451 119.63063 107.7379 119.5097 105.73288 C 119.39254 103.79052 117.53126 102.28714 115.3051 102.2943 z M 135.17991 103.46513 C 134.70681 103.46513 134.46021 103.69117 134.46021 104.18483 L 134.46021 113.95568 C 134.46021 114.42878 134.70681 114.67538 135.17991 114.67538 L 136.00329 114.67538 C 136.49696 114.67538 136.72354 114.42878 136.72354 113.95568 L 136.72354 109.2448 C 136.72354 107.68154 137.62842 106.7355 138.82143 106.7355 C 139.15054 106.7355 139.54096 106.77697 140.1169 106.9004 C 140.3843 106.9621 140.54894 106.90048 140.59008 106.61252 L 140.79579 104.80251 C 140.81639 104.63795 140.77548 104.51473 140.63144 104.43245 C 140.36405 104.2679 139.86958 104.16443 139.41705 104.16443 C 138.36803 104.16443 137.38175 104.72035 136.72354 105.68711 L 136.72354 104.18483 C 136.72354 103.69117 136.49696 103.46513 136.00329 103.46513 L 135.17991 103.46513 z M 143.26649 103.52579 C 142.79339 103.52579 142.54624 103.75239 142.54624 104.24605 L 142.54624 109.88178 C 142.54624 112.69977 144.00742 113.93307 145.98206 113.93307 C 147.19565 113.93307 148.44967 113.31653 149.25188 112.20579 L 149.25188 113.64574 C 149.25188 115.51755 148.28512 115.9703 146.96868 115.9703 C 145.94022 115.9703 144.68593 115.57892 144.00715 115.20868 C 143.73976 115.06469 143.59634 115.20849 143.45235 115.57873 L 143.02052 116.64864 C 142.8971 116.91604 142.8761 117.122 143.14351 117.30712 C 144.02798 117.94477 145.5702 118.33566 147.01005 118.33566 C 149.54005 118.33566 151.51521 117.16244 151.51521 113.93307 L 151.51521 104.55433 C 151.51521 104.06067 151.28918 103.83408 150.79551 103.83408 L 149.97268 103.83408 C 149.49958 103.83408 149.25188 104.06067 149.25188 104.55433 L 149.25188 108.75011 C 149.25188 110.51906 148.16223 111.56826 146.76353 111.56826 C 145.54994 111.56826 144.80903 110.74508 144.80903 109.0584 L 144.80903 104.24605 C 144.80903 103.75239 144.58353 103.52579 144.08987 103.52579 L 143.26649 103.52579 z M 115.24333 103.74419 C 116.01021 103.72319 116.74684 104.0237 117.22431 104.55874 C 118.05063 105.48493 117.9367 107.27559 116.88458 108.00449 C 115.83245 108.73334 114.30917 108.57459 113.48075 107.64988 C 112.65249 106.7251 112.7634 104.93425 113.81385 104.20358 L 113.81992 104.19751 C 114.18585 103.94513 114.62675 103.79087 115.08946 103.75246 L 115.08946 103.75301 C 115.14079 103.74873 115.19221 103.74559 115.24333 103.74419 z M 128.44339 103.77838 C 125.25516 103.77838 123.52735 106.26749 123.52735 109.14719 C 123.52735 112.27372 125.60463 114.41232 128.81344 114.41232 C 130.08874 114.41232 131.54931 114.00103 132.39265 113.36338 C 132.63948 113.15769 132.59862 112.99358 132.49578 112.68504 L 132.10422 111.69731 C 132.00137 111.42991 131.79624 111.30625 131.54941 111.45024 C 130.89119 111.79991 129.90324 112.19145 128.99819 112.19145 C 127.31151 112.19145 126.28321 111.32683 125.93353 110.13382 L 132.10422 109.41411 C 132.65958 109.35241 132.72189 109.10578 132.72189 108.4887 C 132.72189 105.50617 130.89112 103.77838 128.44339 103.77838 z M 153.28938 104.00559 C 153.19498 104.0055 153.10009 104.00657 153.00536 104.00945 C 152.81896 104.02245 152.61534 104.03544 152.43015 104.05964 L 152.43015 105.21116 C 152.63936 105.18176 152.86774 105.16676 153.07871 105.15436 C 155.70998 105.07426 158.20208 106.33203 159.695 108.44403 C 160.77333 109.96993 161.23732 111.82894 160.99819 113.6667 C 161.07809 113.6356 161.15984 113.60789 161.2436 113.58839 C 161.36773 113.55969 161.5159 113.52914 161.64344 113.53324 C 161.68954 113.53524 161.73577 113.5362 161.78186 113.5382 C 161.85876 113.5412 161.86923 113.548 162.02231 113.5928 C 162.03341 113.5968 162.14443 113.63598 162.15522 113.63968 C 162.36998 111.58986 161.82819 109.49194 160.62924 107.79437 C 158.96282 105.43711 156.21566 104.00855 153.28938 104.00559 z M 128.27849 105.9794 C 129.36866 105.9794 130.17085 106.67855 130.35597 107.66587 L 125.85191 108.20082 C 126.11931 106.71984 127.00319 105.9794 128.27849 105.9794 z M 120.71969 108.06019 C 120.50434 108.05972 120.36469 108.30942 120.16323 108.64367 L 115.74574 115.67525 L 110.79221 108.91501 C 110.47126 108.47695 110.33777 108.18145 109.96938 108.44183 L 108.85094 109.23212 C 108.44503 109.51902 108.27235 109.74826 108.54983 110.11507 L 114.53301 118.02462 C 114.82164 118.40618 115.0552 118.44759 115.29517 118.43769 L 116.5206 118.43769 C 116.87027 118.43769 117.01305 118.39583 117.27284 117.97609 L 122.3102 109.58011 C 122.54447 109.18969 122.2581 109.00574 121.8668 108.7468 L 120.96565 108.15009 C 120.87195 108.08809 120.79147 108.06039 120.71969 108.06019 z M 154.88541 114.33787 C 154.24719 114.33787 153.91422 114.64364 153.91422 115.3096 L 153.91422 133.34628 C 153.91422 133.9845 154.24719 134.31691 154.88541 134.31691 L 156.07939 134.31691 C 156.71761 134.31691 157.05003 133.9845 157.05003 133.34628 L 157.05003 115.3096 C 157.05003 114.64364 156.71761 114.33787 156.07939 114.33787 L 154.88541 114.33787 z M 161.62855 114.33787 C 160.4631 114.33787 159.5472 115.25377 159.5472 116.41921 C 159.5472 117.58466 160.4631 118.52813 161.62855 118.52813 C 162.79398 118.52813 163.70989 117.58466 163.70989 116.41921 C 163.70989 115.25377 162.76624 114.33787 161.62855 114.33787 z M 120.78201 115.99897 C 120.14378 115.99897 119.81027 116.30419 119.81027 116.97016 L 119.81027 133.61982 C 119.81027 134.25804 120.14378 134.64649 120.78201 134.591 L 122.03004 134.5899 L 122.08629 134.5899 L 127.6939 134.59597 C 133.3824 134.06874 137.4642 130.92838 137.4642 124.87916 C 137.4642 118.85768 133.57912 115.99953 127.47441 115.99953 L 120.78201 115.99897 z M 127.72754 119.23074 C 131.86163 119.16874 134.30082 121.13252 134.30082 124.87861 C 134.30082 128.45819 131.80649 130.6494 127.92167 131.01014 L 123.00178 131.03937 L 123.00178 119.30078 L 127.72754 119.23074 z M 145.89547 120.27638 C 141.59442 120.27638 139.26318 123.63379 139.26318 127.51862 C 139.26318 131.73643 142.06577 134.62244 146.39458 134.62244 C 148.11499 134.62244 150.08523 134.06752 151.22292 133.2073 C 151.55591 132.92982 151.5001 132.70805 151.36135 132.29182 L 150.83467 130.95995 C 150.69592 130.59922 150.41818 130.43261 150.08519 130.62685 C 149.19723 131.09858 147.86534 131.62561 146.6444 131.62561 C 144.36901 131.62561 142.98212 130.46046 142.51039 128.85103 L 150.83467 127.8793 C 151.58388 127.7961 151.66688 127.46373 151.66688 126.63126 C 151.66688 122.6077 149.19757 120.27638 145.89547 120.27638 z M 161.07374 120.99773 C 160.40777 120.99773 160.10256 121.3035 160.10256 121.96947 L 160.10256 133.34628 C 160.10256 133.9845 160.40777 134.31691 161.07374 134.31691 L 162.1839 134.31691 C 162.82213 134.31691 163.15453 133.9845 163.15453 133.34628 L 163.15453 121.96947 C 163.15453 121.3035 162.82213 120.99773 162.1839 120.99773 L 161.07374 120.99773 z M 145.67322 123.24618 C 147.14391 123.24618 148.22618 124.18916 148.47592 125.5211 L 142.39899 126.24246 C 142.75973 124.24455 143.9528 123.24618 145.67322 123.24618 z "
       transform="matrix(0.93702304,0,0,0.93702304,-101.0667,-95.112112)" />
  </g>
</svg>
