<?xml version="1.0" encoding="UTF-8" standalone="no"?>
<!-- Created with Inkscape (http://www.inkscape.org/) -->

<svg
   width="200"
   height="120"
   viewBox="0 0 52.916665 31.75001"
   version="1.1"
   id="svg1"
   inkscape:version="1.3.2 (091e20e, 2023-11-25, custom)"
   sodipodi:docname="logo-aqua-azul.svg"
   xmlns:inkscape="http://www.inkscape.org/namespaces/inkscape"
   xmlns:sodipodi="http://sodipodi.sourceforge.net/DTD/sodipodi-0.dtd"
   xmlns="http://www.w3.org/2000/svg"
   xmlns:svg="http://www.w3.org/2000/svg">
  <sodipodi:namedview
     id="namedview1"
     pagecolor="#ffffff"
     bordercolor="#000000"
     borderopacity="0.25"
     inkscape:showpageshadow="2"
     inkscape:pageopacity="0.0"
     inkscape:pagecheckerboard="0"
     inkscape:deskcolor="#d1d1d1"
     inkscape:document-units="mm"
     inkscape:zoom="2.5650675"
     inkscape:cx="93.759716"
     inkscape:cy="94.149569"
     inkscape:window-width="1366"
     inkscape:window-height="697"
     inkscape:window-x="-8"
     inkscape:window-y="-8"
     inkscape:window-maximized="1"
     inkscape:current-layer="layer1" />
  <defs
     id="defs1" />
  <g
     inkscape:label="veryLogo"
     inkscape:groupmode="layer"
     id="layer1">
    <path
       id="path55"
       style="display:inline;opacity:1;fill:#0d284b;fill-opacity:1;stroke-width:0.231317"
       inkscape:label="extras"
       d="m 115.3051,102.2943 c -0.0718,2.3e-4 -0.14366,0.002 -0.21619,0.006 -2.32079,0.10911 -4.10439,1.82291 -3.98345,3.82793 0.12095,2.00503 3.67452,6.53651 4.58127,6.49386 0.78894,-0.0371 3.9439,-4.88371 3.82297,-6.88873 -0.11716,-1.94236 -1.97844,-3.44574 -4.2046,-3.43858 z m -0.0618,1.44989 c 0.76688,-0.021 1.50351,0.27951 1.98098,0.81455 0.82632,0.92619 0.71239,2.71685 -0.33973,3.44575 -1.05213,0.72885 -2.57541,0.5701 -3.40383,-0.35461 -0.82826,-0.92478 -0.71735,-2.71563 0.3331,-3.4463 l 0.006,-0.006 c 0.36593,-0.25238 0.80683,-0.40664 1.26954,-0.44505 v 5.5e-4 c 0.0513,-0.004 0.10275,-0.007 0.15387,-0.009 z m 38.04605,0.2614 c -0.0944,-9e-5 -0.18929,9.8e-4 -0.28402,0.004 -0.1864,0.013 -0.39002,0.026 -0.57521,0.0502 v 1.15152 c 0.20921,-0.0294 0.43759,-0.0444 0.64856,-0.0568 2.63127,-0.0801 5.12337,1.17767 6.61629,3.28967 1.07833,1.5259 1.54232,3.38491 1.30319,5.22267 0.0799,-0.0311 0.16165,-0.0588 0.24541,-0.0783 0.12413,-0.0287 0.2723,-0.0593 0.39984,-0.0551 0.0461,0.002 0.0923,0.003 0.13842,0.005 0.0769,0.003 0.0874,0.01 0.24045,0.0546 0.0111,0.004 0.12212,0.0432 0.13291,0.0469 0.21476,-2.04982 -0.32703,-4.14774 -1.52598,-5.84531 -1.66642,-2.35726 -4.41358,-3.78582 -7.33986,-3.78878 z"
       transform="matrix(0.93702304,0,0,0.93702304,-101.0667,-95.112112)" />
    <path
       id="path46"
       style="font-size:27.7488px;display:inline;fill:#12929a;fill-opacity:1;stroke-width:0.144525"
       inkscape:label="veryDeli"
       d="m 135.17991,103.46513 c -0.4731,0 -0.7197,0.22604 -0.7197,0.7197 v 9.77085 c 0,0.4731 0.2466,0.7197 0.7197,0.7197 h 0.82338 c 0.49367,0 0.72025,-0.2466 0.72025,-0.7197 v -4.71088 c 0,-1.56326 0.90488,-2.5093 2.09789,-2.5093 0.32911,0 0.71953,0.0415 1.29547,0.1649 0.2674,0.0617 0.43204,8e-5 0.47318,-0.28788 l 0.20571,-1.81001 c 0.0206,-0.16456 -0.0203,-0.28778 -0.16435,-0.37006 -0.26739,-0.16455 -0.76186,-0.26802 -1.21439,-0.26802 -1.04902,0 -2.0353,0.55592 -2.69351,1.52268 v -1.50228 c 0,-0.49366 -0.22658,-0.7197 -0.72025,-0.7197 z m 8.08658,0.0607 c -0.4731,0 -0.72025,0.2266 -0.72025,0.72026 v 5.63573 c 0,2.81799 1.46118,4.05129 3.43582,4.05129 1.21359,0 2.46761,-0.61654 3.26982,-1.72728 v 1.43995 c 0,1.87181 -0.96676,2.32456 -2.2832,2.32456 -1.02846,0 -2.28275,-0.39138 -2.96153,-0.76162 -0.26739,-0.14399 -0.41081,-1.9e-4 -0.5548,0.37005 l -0.43183,1.06991 c -0.12342,0.2674 -0.14442,0.47336 0.12299,0.65848 0.88447,0.63765 2.42669,1.02854 3.86654,1.02854 2.53,0 4.50516,-1.17322 4.50516,-4.40259 v -9.37874 c 0,-0.49366 -0.22603,-0.72025 -0.7197,-0.72025 h -0.82283 c -0.4731,0 -0.7208,0.22659 -0.7208,0.72025 v 4.19578 c 0,1.76895 -1.08965,2.81815 -2.48835,2.81815 -1.21359,0 -1.9545,-0.82318 -1.9545,-2.50986 v -4.81235 c 0,-0.49366 -0.2255,-0.72026 -0.71916,-0.72026 z m -14.8231,0.25259 c -3.18823,0 -4.91604,2.48911 -4.91604,5.36881 0,3.12653 2.07728,5.26513 5.28609,5.26513 1.2753,0 2.73587,-0.41129 3.57921,-1.04894 0.24683,-0.20569 0.20597,-0.3698 0.10313,-0.67834 l -0.39156,-0.98773 c -0.10285,-0.2674 -0.30798,-0.39106 -0.55481,-0.24707 -0.65822,0.34967 -1.64617,0.74121 -2.55122,0.74121 -1.68668,0 -2.71498,-0.86462 -3.06466,-2.05763 l 6.17069,-0.71971 c 0.55536,-0.0617 0.61767,-0.30833 0.61767,-0.92541 0,-2.98253 -1.83077,-4.71032 -4.2785,-4.71032 z m -0.1649,2.20102 c 1.09017,0 1.89236,0.69915 2.07748,1.68647 l -4.50406,0.53495 c 0.2674,-1.48098 1.15128,-2.22142 2.42658,-2.22142 z m -7.5588,2.08079 c -0.21535,-4.7e-4 -0.355,0.24923 -0.55646,0.58348 l -4.41749,7.03158 -4.95353,-6.76024 c -0.32095,-0.43806 -0.45444,-0.73356 -0.82283,-0.47318 l -1.11844,0.79029 c -0.40591,0.2869 -0.57859,0.51614 -0.30111,0.88295 l 5.98318,7.90955 c 0.28863,0.38156 0.52219,0.42297 0.76216,0.41307 h 1.22543 c 0.34967,0 0.49245,-0.0419 0.75224,-0.4616 l 5.03736,-8.39598 c 0.23427,-0.39042 -0.0521,-0.57437 -0.4434,-0.83331 l -0.90115,-0.59671 c -0.0937,-0.062 -0.17418,-0.0897 -0.24596,-0.0899 z m 34.16572,6.27768 c -0.63822,0 -0.97119,0.30577 -0.97119,0.97173 v 18.03668 c 0,0.63822 0.33297,0.97063 0.97119,0.97063 h 1.19398 c 0.63822,0 0.97064,-0.33241 0.97064,-0.97063 V 115.3096 c 0,-0.66596 -0.33242,-0.97173 -0.97064,-0.97173 z m 6.74314,0 c -1.16545,0 -2.08135,0.9159 -2.08135,2.08134 0,1.16545 0.9159,2.10892 2.08135,2.10892 1.16543,0 2.08134,-0.94347 2.08134,-2.10892 0,-1.16544 -0.94365,-2.08134 -2.08134,-2.08134 z m -40.84654,1.6611 c -0.63823,0 -0.97174,0.30522 -0.97174,0.97119 v 16.64966 c 0,0.63822 0.33351,1.02667 0.97174,0.97118 l 1.24803,-0.001 h 0.0563 l 5.60761,0.006 c 5.6885,-0.52723 9.7703,-3.66759 9.7703,-9.71681 0,-6.02148 -3.88508,-8.87963 -9.98979,-8.87963 z m 6.94553,3.23177 c 4.13409,-0.062 6.57328,1.90178 6.57328,5.64787 0,3.57958 -2.49433,5.77079 -6.37915,6.13153 l -4.91989,0.0292 v -11.73859 z m 18.16793,1.04564 c -4.30105,0 -6.63229,3.35741 -6.63229,7.24224 0,4.21781 2.80259,7.10382 7.1314,7.10382 1.72041,0 3.69065,-0.55492 4.82834,-1.41514 0.33299,-0.27748 0.27718,-0.49925 0.13843,-0.91548 l -0.52668,-1.33187 c -0.13875,-0.36073 -0.41649,-0.52734 -0.74948,-0.3331 -0.88796,0.47173 -2.21985,0.99876 -3.44079,0.99876 -2.27539,0 -3.66228,-1.16515 -4.13401,-2.77458 l 8.32428,-0.97173 c 0.74921,-0.0832 0.83221,-0.41557 0.83221,-1.24804 0,-4.02356 -2.46931,-6.35488 -5.77141,-6.35488 z m 15.17827,0.72135 c -0.66597,0 -0.97118,0.30577 -0.97118,0.97174 v 11.37681 c 0,0.63822 0.30521,0.97063 0.97118,0.97063 h 1.11016 c 0.63823,0 0.97063,-0.33241 0.97063,-0.97063 v -11.37681 c 0,-0.66597 -0.3324,-0.97174 -0.97063,-0.97174 z m -15.40052,2.24845 c 1.47069,0 2.55296,0.94298 2.8027,2.27492 l -6.07693,0.72136 c 0.36074,-1.99791 1.55381,-2.99628 3.27423,-2.99628 z"
       transform="matrix(0.93702304,0,0,0.93702304,-101.0667,-95.112112)" />
  </g>
</svg>
